<?xml version="1.0" encoding="UTF-8" standalone="no"?>
<!DOCTYPE svg PUBLIC "-//W3C//DTD SVG 1.1//EN" "http://www.w3.org/Graphics/SVG/1.1/DTD/svg11.dtd">
<svg width="100%" height="100%" viewBox="0 0 878 1024" version="1.1" xmlns="http://www.w3.org/2000/svg" xmlns:xlink="http://www.w3.org/1999/xlink" xml:space="preserve" xmlns:serif="http://www.serif.com/" style="fill-rule:evenodd;clip-rule:evenodd;stroke-linejoin:round;stroke-miterlimit:2;">
    <g id="logo">
        <path d="M804.049,339.387c45.108,23.987 73.403,71.081 73.403,122.17c0,51.089 -28.295,98.183 -73.403,122.17l-591.329,321.557c-95.216,51.831 -212.171,-15.554 -212.171,-122.124l0,-643.16c0,-106.616 116.955,-173.956 212.171,-122.217l591.329,321.603Zm-165.765,29.723c0,-9.634 -3.372,-17.823 -10.116,-24.567l-49.134,-49.134c-6.744,-6.744 -14.933,-10.116 -24.567,-10.116c-9.634,0 -17.823,3.372 -24.567,10.116l-237,237.362l-106.217,-106.578c-6.744,-6.744 -14.933,-10.116 -24.567,-10.116c-9.634,0 -17.823,3.372 -24.567,10.116l-49.134,49.134c-6.744,6.744 -10.116,14.933 -10.116,24.567c0,9.634 3.372,17.823 10.116,24.567l179.918,179.918c6.744,6.744 14.933,10.116 24.567,10.116c9.634,0 17.823,-3.372 24.567,-10.116l310.702,-310.702c6.744,-6.744 10.116,-14.933 10.116,-24.567Z" style="fill:#f7ebe8;"/>
        <path d="M804.049,440.273c45.108,23.987 73.403,71.081 73.403,122.17c0,51.089 -28.295,98.183 -73.403,122.17l-591.329,321.557c-95.216,51.831 -212.171,-15.554 -212.171,-122.124l0,-643.16c0,-106.616 116.955,-173.956 212.171,-122.217l591.329,321.603Zm-165.765,29.723c0,-9.634 -3.372,-17.823 -10.116,-24.567l-49.134,-49.134c-6.744,-6.744 -14.933,-10.116 -24.567,-10.116c-9.634,0 -17.823,3.372 -24.567,10.116l-237,237.362l-106.217,-106.578c-6.744,-6.744 -14.933,-10.116 -24.567,-10.116c-9.634,0 -17.823,3.372 -24.567,10.116l-49.134,49.134c-6.744,6.744 -10.116,14.933 -10.116,24.567c0,9.634 3.372,17.823 10.116,24.567l179.918,179.918c6.744,6.744 14.933,10.116 24.567,10.116c9.634,0 17.823,-3.372 24.567,-10.116l310.702,-310.702c6.744,-6.744 10.116,-14.933 10.116,-24.567Z" style="fill:#e54b4b;"/>
        <path d="M804.049,389.83c45.108,23.987 73.403,71.081 73.403,122.17c0,51.089 -28.295,98.183 -73.403,122.17l-591.329,321.557c-95.216,51.831 -212.171,-15.554 -212.171,-122.124l0,-643.16c0,-106.616 116.955,-173.956 212.171,-122.217l591.329,321.603Zm-165.765,29.723c0,-9.634 -3.372,-17.823 -10.116,-24.567l-49.134,-49.134c-6.744,-6.744 -14.933,-10.116 -24.567,-10.116c-9.634,0 -17.823,3.372 -24.567,10.116l-237,237.362l-106.217,-106.578c-6.744,-6.744 -14.933,-10.116 -24.567,-10.116c-9.634,0 -17.823,3.372 -24.567,10.116l-49.134,49.134c-6.744,6.744 -10.116,14.933 -10.116,24.567c0,9.634 3.372,17.823 10.116,24.567l179.918,179.918c6.744,6.744 14.933,10.116 24.567,10.116c9.634,0 17.823,-3.372 24.567,-10.116l310.702,-310.702c6.744,-6.744 10.116,-14.933 10.116,-24.567Z" style="fill:#6b9fa5;"/>
    </g>
</svg>
